<?xml version="1.0" ?>
<!DOCTYPE svg  PUBLIC '-//W3C//DTD SVG 1.1//EN'  'http://www.w3.org/Graphics/SVG/1.1/DTD/svg11.dtd'>
<!-- Uploaded to: SVG Repo, www.svgrepo.com, Generator: SVG Repo Mixer Tools -->
<svg width="800px" height="800px" viewBox="0 0 512 512" enable-background="new 0 0 512 512" version="1.1" xml:space="preserve" xmlns="http://www.w3.org/2000/svg" xmlns:xlink="http://www.w3.org/1999/xlink">
<g id="_x30_1"/>
<g id="_x30_2"/>
<g id="_x30_3"/>
<g id="_x30_4"/>
<g id="_x30_5"/>
<g id="_x30_6"/>
<g id="_x30_7"/>
<g id="_x30_8"/>
<g id="_x30_9"/>
<g id="_x31_0"/>
<g id="_x31_1"/>
<g id="_x31_2"/>
<g id="_x31_3"/>
<g id="_x31_4"/>
<g id="_x31_5"/>
<g id="_x31_6"/>
<g id="_x31_7"/>
<g id="_x31_8"/>
<g id="_x31_9"/>
<g id="_x32_0"/>
<g id="_x32_1"/>
<g id="_x32_2"/>
<g id="_x32_3"/>
<g id="_x32_4"/>
<g id="_x32_5"/>
<g id="_x32_6"/>
<g id="_x32_7"/>
<g id="_x32_8"/>
<g id="_x32_9"/>
<g id="_x33_0"/>
<g id="_x33_1"/>
<g id="_x33_2"/>
<g id="_x33_3"/>
<g id="_x33_4"/>
<g id="_x33_5"/>
<g id="_x33_6"/>
<g id="_x33_7"/>
<g id="_x33_8"/>
<g id="_x33_9"/>
<g id="_x34_0"/>
<g id="_x34_1"/>
<g id="_x34_2"/>
<g id="_x34_3"/>
<g id="_x34_4"/>
<g id="_x34_5"/>
<g id="_x34_6"/>
<g id="_x34_7"/>
<g id="_x34_8"/>
<g id="_x34_9"/>
<g id="_x35_0">
<g>
<path clip-rule="evenodd" d="    M256.197-507.144c88.705,5.973,79.16,346.885,58.384,418.989c-5.572,19.29-9.773,37.952-24.748,49.155    c-20.262-25.521-58.699-22.806-73.216,0c-15.003-11.203-18.347-30.15-24.749-49.155    C169.435-154.657,168.149-513.06,256.197-507.144L256.197-507.144z" fill="#F5D8B3" fill-rule="evenodd" stroke="#6C6CAA" stroke-linecap="round" stroke-linejoin="round" stroke-miterlimit="10" stroke-width="20.1478"/>
<line fill="none" stroke="#6C6CAA" stroke-linecap="round" stroke-linejoin="round" stroke-miterlimit="10" stroke-width="20.1478" x1="256.197" x2="256.197" y1="-495.57" y2="-121.049"/>
<line fill="none" stroke="#6C6CAA" stroke-linecap="round" stroke-linejoin="round" stroke-miterlimit="10" stroke-width="20.1478" x1="256.197" x2="256.197" y1="-90.898" y2="-91.128"/>
<path d="    M192.955-404.004c3.515,93.452,145.432,101.167,130.257,264.122C268.857-300.007,176.98-240.879,192.955-404.004L192.955-404.004z    " fill="none" stroke="#6C6CAA" stroke-linecap="round" stroke-linejoin="round" stroke-miterlimit="10" stroke-width="20.1478"/>
</g>
<g>
<path clip-rule="evenodd" d="    M695.717-345.821l-0.229,17.318l312.382,0.057c-4.686,24.949-55.813,75.59-87.791,90.022c-13.945-1.172-28.406-3.229-43.408-6.173    c-54.24-13.289-103.366-14.404-146.061-0.286c-45.639,12.031-82.589,14.232-106.566,1.715c-4.629-2.344-9.23-4.201-13.86-5.63    C566.432-290.265,628.217-345.878,695.717-345.821L695.717-345.821z" fill="#F9E5D3" fill-rule="evenodd" stroke="#6C6CAA" stroke-linecap="round" stroke-linejoin="round" stroke-miterlimit="10" stroke-width="20.1764"/>
<line fill="none" stroke="#6C6CAA" stroke-linecap="round" stroke-linejoin="round" stroke-miterlimit="10" stroke-width="20.1764" x1="987.467" x2="669.312" y1="-293.98" y2="-293.98"/>
<path d="    M1025.99-248.569c-42.752,13.231-92.105,15.261-149.318,3.973c-54.24-13.289-103.366-14.404-146.061-0.286    c-45.639,12.031-82.589,14.232-106.566,1.715c-24.348-12.46-48.696-10.975-73.044-3.229" fill="none" stroke="#6C6CAA" stroke-linecap="round" stroke-linejoin="round" stroke-miterlimit="10" stroke-width="20.1764"/>
<path d="    M969.436-194.242c-36.266,3.602-75.275,7.06-115.426-12.745c-31.693-12.118-62.9-20.634-102.537-0.258    c-68.93,26.778-112.682,9.803-126.685,5.83c-14.003-4.001-32.807-19.319-56.098-6.459" fill="none" stroke="#6C6CAA" stroke-linecap="round" stroke-linejoin="round" stroke-miterlimit="10" stroke-width="20.1764"/>
<line fill="none" stroke="#6C6CAA" stroke-linecap="round" stroke-linejoin="round" stroke-miterlimit="10" stroke-width="20.1764" x1="995.469" x2="1009.072" y1="-198.786" y2="-201.615"/>
<polygon clip-rule="evenodd" fill="#DCF2FF" fill-rule="evenodd" points="    747.243,-375 746.9,-328.474 881.158,-328.332 803.941,-374.915   " stroke="#6C6CAA" stroke-linecap="round" stroke-linejoin="round" stroke-miterlimit="10" stroke-width="20.1764"/>
<line fill="none" stroke="#6C6CAA" stroke-linecap="round" stroke-linejoin="round" stroke-miterlimit="10" stroke-width="20.1764" x1="783.851" x2="783.937" y1="-374.943" y2="-328.217"/>
<line fill="none" stroke="#6C6CAA" stroke-linecap="round" stroke-linejoin="round" stroke-miterlimit="10" stroke-width="20.1764" x1="637.533" x2="599.268" y1="-295.781" y2="-295.781"/>
</g>
<g>
<path clip-rule="evenodd" d="    M-303.051-448.464v353.915c-1.714,50.813-78.103,62.358-100.622,0l-79.274-333.282    C-486.52-499.02-307.537-511.794-303.051-448.464L-303.051-448.464z" fill="#B0F0A8" fill-rule="evenodd" stroke="#6C6CAA" stroke-linecap="round" stroke-linejoin="round" stroke-miterlimit="10" stroke-width="20.1764"/>
<path d="    M-443.31-261.189c40.237-39.724,86.619-48.612,140.259-21.234" fill="none" stroke="#6C6CAA" stroke-linecap="round" stroke-linejoin="round" stroke-miterlimit="10" stroke-width="20.1764"/>
<path d="    M-423.22-176.683c37.637-62.645,78.074-58.015,120.169-13.317" fill="none" stroke="#6C6CAA" stroke-linecap="round" stroke-linejoin="round" stroke-miterlimit="10" stroke-width="20.1764"/>
<line fill="none" stroke="#6C6CAA" stroke-linecap="round" stroke-linejoin="round" stroke-miterlimit="10" stroke-width="20.1764" x1="-445.596" x2="-420.448" y1="-428.345" y2="-322.69"/>
<line fill="none" stroke="#6C6CAA" stroke-linecap="round" stroke-linejoin="round" stroke-miterlimit="10" stroke-width="20.1764" x1="-393.099" x2="-381.868" y1="-446.149" y2="-327.72"/>
<line fill="none" stroke="#6C6CAA" stroke-linecap="round" stroke-linejoin="round" stroke-miterlimit="10" stroke-width="20.1764" x1="-342.631" x2="-341.63" y1="-403.167" y2="-332.75"/>
<line fill="none" stroke="#6C6CAA" stroke-linecap="round" stroke-linejoin="round" stroke-miterlimit="10" stroke-width="20.1764" x1="-343.288" x2="-343.288" y1="-436.032" y2="-436.29"/>
<path clip-rule="evenodd" d="    M-241.237-448.464v353.915c1.715,50.813,78.103,62.358,100.622,0l79.274-333.282C-57.768-499.02-236.75-511.794-241.237-448.464    L-241.237-448.464z" fill="#B0F0A8" fill-rule="evenodd" stroke="#6C6CAA" stroke-linecap="round" stroke-linejoin="round" stroke-miterlimit="10" stroke-width="20.1764"/>
<path d="    M-100.978-261.189c-40.237-39.724-86.619-48.612-140.259-21.234" fill="none" stroke="#6C6CAA" stroke-linecap="round" stroke-linejoin="round" stroke-miterlimit="10" stroke-width="20.1764"/>
<path d="    M-121.068-176.683c-37.637-62.645-78.074-58.015-120.169-13.317" fill="none" stroke="#6C6CAA" stroke-linecap="round" stroke-linejoin="round" stroke-miterlimit="10" stroke-width="20.1764"/>
<line fill="none" stroke="#6C6CAA" stroke-linecap="round" stroke-linejoin="round" stroke-miterlimit="10" stroke-width="20.1764" x1="-98.692" x2="-123.84" y1="-428.345" y2="-322.69"/>
<line fill="none" stroke="#6C6CAA" stroke-linecap="round" stroke-linejoin="round" stroke-miterlimit="10" stroke-width="20.1764" x1="-151.189" x2="-162.419" y1="-446.149" y2="-327.72"/>
<line fill="none" stroke="#6C6CAA" stroke-linecap="round" stroke-linejoin="round" stroke-miterlimit="10" stroke-width="20.1764" x1="-201.657" x2="-202.657" y1="-403.167" y2="-332.75"/>
<line fill="none" stroke="#6C6CAA" stroke-linecap="round" stroke-linejoin="round" stroke-miterlimit="10" stroke-width="20.1764" x1="-201" x2="-201" y1="-436.032" y2="-436.29"/>
</g>
<g>
<path clip-rule="evenodd" d="    M1087.743-302.039l105.452-35.151l40.18,22.605h263.658c67.5,0.657,90.162,79.477,20.89,89.45c0-0.314,0-0.628,0-0.942    c0-22.206-17.976-40.182-40.151-40.182c-22.205,0-40.181,17.976-40.181,40.182c0,0.628,0,1.257,0.029,1.886h-218.706    c0.029-0.629,0.029-1.258,0.029-1.886c0-22.206-17.976-40.182-40.18-40.182c-22.177,0-40.181,17.976-40.181,40.182    c0,0.171,0,0.314,0.028,0.485L1087-242.11L1087.743-302.039z" fill="#FDB7CA" fill-rule="evenodd" stroke="#6C6CAA" stroke-linecap="round" stroke-linejoin="round" stroke-miterlimit="10" stroke-width="20.1478"/>
<polygon clip-rule="evenodd" fill="#DCF2FF" fill-rule="evenodd" points="    1328.167,-378 1387.18,-314.584 1233.375,-314.584 1193.195,-337.19   " stroke="#6C6CAA" stroke-linecap="round" stroke-linejoin="round" stroke-miterlimit="10" stroke-width="20.1478"/>
<path clip-rule="evenodd" d="    M1178.764-185.896c22.146,0,40.18-18.062,40.18-40.181c0-22.12-18.033-40.182-40.18-40.182c-22.119,0-40.181,18.062-40.181,40.182    C1138.583-203.958,1156.645-185.896,1178.764-185.896L1178.764-185.896z" fill="#F9E5D3" fill-rule="evenodd" stroke="#6C6CAA" stroke-linecap="round" stroke-linejoin="round" stroke-miterlimit="10" stroke-width="20.1478"/>
<path clip-rule="evenodd" d="    M1477.771-185.896c22.119,0,40.151-18.062,40.151-40.181c0-22.12-18.032-40.182-40.151-40.182    c-22.147,0-40.181,18.062-40.181,40.182C1437.591-203.958,1455.624-185.896,1477.771-185.896L1477.771-185.896z" fill="#F9E5D3" fill-rule="evenodd" stroke="#6C6CAA" stroke-linecap="round" stroke-linejoin="round" stroke-miterlimit="10" stroke-width="20.1478"/>
<line fill="none" stroke="#6C6CAA" stroke-linecap="round" stroke-linejoin="round" stroke-miterlimit="10" stroke-width="20.1478" x1="1239.033" x2="1365.833" y1="-273.203" y2="-273.203"/>
<line fill="none" stroke="#6C6CAA" stroke-linecap="round" stroke-linejoin="round" stroke-miterlimit="10" stroke-width="20.1478" x1="1526.554" x2="1557.617" y1="-277.546" y2="-277.089"/>
<polyline fill="none" points="    1117.235,-266.258 1094.658,-266.544 1087.314,-266.629   " stroke="#6C6CAA" stroke-linecap="round" stroke-linejoin="round" stroke-miterlimit="10" stroke-width="20.1478"/>
<line fill="none" stroke="#6C6CAA" stroke-linecap="round" stroke-linejoin="round" stroke-miterlimit="10" stroke-width="20.1478" x1="1283.186" x2="1310.277" y1="-364.397" y2="-314.584"/>
<line fill="none" stroke="#6C6CAA" stroke-linecap="round" stroke-linejoin="round" stroke-miterlimit="10" stroke-width="20.1478" x1="1406.385" x2="1406.385" y1="-271.602" y2="-271.86"/>
<line fill="none" stroke="#6C6CAA" stroke-linecap="round" stroke-linejoin="round" stroke-miterlimit="10" stroke-width="20.1478" x1="1477.771" x2="1477.771" y1="-225.848" y2="-226.077"/>
<line fill="none" stroke="#6C6CAA" stroke-linecap="round" stroke-linejoin="round" stroke-miterlimit="10" stroke-width="20.1478" x1="1178.764" x2="1178.764" y1="-225.848" y2="-226.077"/>
</g>
<g>
<path clip-rule="evenodd" d="    M1683.998-363.584c-26.377,33.266-35.837,74.99-36.351,121.173v76.934h11.574c7.858,0,14.26,6.43,14.26,14.26v0.887h29.264    c0.657-21.52,18.289-38.753,39.98-38.753c21.662,0,39.322,17.233,39.951,38.753h132.687c0.629-21.52,18.289-38.753,39.951-38.753    c21.69,0,39.323,17.233,39.98,38.753h36.036v-0.887c0-7.83,6.431-14.26,14.261-14.26h11.574v-78.134    c2.143-39.981-6.173-79.991-26.635-119.973H1683.998z" fill="#DBBEB9" fill-rule="evenodd" stroke="#6C6CAA" stroke-linecap="round" stroke-linejoin="round" stroke-miterlimit="10" stroke-width="20.1764"/>
<path clip-rule="evenodd" d="    M1770.017-395.077h307.754c-11.889-18.891-31.722-31.179-63.015-33.923h-182.954    C1805.139-426.799,1783.763-416.683,1770.017-395.077L1770.017-395.077z" fill="#F5D8B3" fill-rule="evenodd" stroke="#6C6CAA" stroke-linecap="round" stroke-linejoin="round" stroke-miterlimit="10" stroke-width="20.1764"/>
<path clip-rule="evenodd" d="    M1702.573-304.541h52.526c7.458,0,13.546,6.116,13.546,13.575v21.348c0,7.459-6.088,13.547-13.546,13.547h-52.526    c-7.486,0-13.574-6.088-13.574-13.547v-21.348C1688.999-298.425,1695.087-304.541,1702.573-304.541L1702.573-304.541z" fill="#DCF2FF" fill-rule="evenodd" stroke="#6C6CAA" stroke-linecap="round" stroke-linejoin="round" stroke-miterlimit="10" stroke-width="20.1764"/>
<path clip-rule="evenodd" d="    M1953.143-304.541h52.526c7.458,0,13.546,6.116,13.546,13.575v21.348c0,7.459-6.088,13.547-13.546,13.547h-52.526    c-7.487,0-13.574-6.088-13.574-13.547v-21.348C1939.568-298.425,1945.655-304.541,1953.143-304.541L1953.143-304.541z" fill="#DCF2FF" fill-rule="evenodd" stroke="#6C6CAA" stroke-linecap="round" stroke-linejoin="round" stroke-miterlimit="10" stroke-width="20.1764"/>
<path clip-rule="evenodd" d="    M1831.63-304.541h52.526c7.487,0,13.574,6.116,13.574,13.575v21.348c0,7.459-6.087,13.547-13.574,13.547h-52.526    c-7.458,0-13.545-6.088-13.545-13.547v-21.348C1818.085-298.425,1824.172-304.541,1831.63-304.541L1831.63-304.541z" fill="#DCF2FF" fill-rule="evenodd" stroke="#6C6CAA" stroke-linecap="round" stroke-linejoin="round" stroke-miterlimit="10" stroke-width="20.1764"/>
<line fill="none" stroke="#6C6CAA" stroke-linecap="round" stroke-linejoin="round" stroke-miterlimit="10" stroke-width="20.1764" x1="1665.251" x2="1975.634" y1="-332.062" y2="-332.062"/>
<line fill="none" stroke="#6C6CAA" stroke-linecap="round" stroke-linejoin="round" stroke-miterlimit="10" stroke-width="20.1764" x1="1934.796" x2="1954.172" y1="-217.862" y2="-217.862"/>
<path clip-rule="evenodd" d="    M2068.769-165.478h-23.177c-7.83,0-14.261,6.43-14.261,14.26v1.772c0,7.859,6.431,14.261,14.261,14.261h23.177    c7.83,0,14.231-6.401,14.231-14.261v-1.772C2083-159.048,2076.599-165.478,2068.769-165.478L2068.769-165.478z" fill="#F5D8B3" fill-rule="evenodd" stroke="#6C6CAA" stroke-linecap="round" stroke-linejoin="round" stroke-miterlimit="10" stroke-width="20.1764"/>
<path clip-rule="evenodd" d="    M1659.222-165.478h-23.148c-7.859,0-14.26,6.43-14.26,14.26v1.772c0,7.859,6.4,14.261,14.26,14.261h23.148    c7.858,0,14.26-6.401,14.26-14.261v-1.772C1673.481-159.048,1667.08-165.478,1659.222-165.478L1659.222-165.478z" fill="#F5D8B3" fill-rule="evenodd" stroke="#6C6CAA" stroke-linecap="round" stroke-linejoin="round" stroke-miterlimit="10" stroke-width="20.1764"/>
<path d="    M2050.507-248.47c2.115,0,4.144,0.429,6.059,1.2v46.068c-1.915,0.771-3.943,1.2-6.059,1.2c-10.717,0-19.376-10.859-19.376-24.234    S2039.79-248.47,2050.507-248.47L2050.507-248.47z" fill="none" stroke="#6C6CAA" stroke-linecap="round" stroke-linejoin="round" stroke-miterlimit="10" stroke-width="20.1764"/>
<path clip-rule="evenodd" d="    M1742.726-109.121c22.004,0,39.98-17.976,39.98-39.981c0-22.034-17.977-39.981-39.98-39.981c-22.033,0-39.98,17.947-39.98,39.981    C1702.745-127.097,1720.692-109.121,1742.726-109.121L1742.726-109.121z" fill="#F9E5D3" fill-rule="evenodd" stroke="#6C6CAA" stroke-linecap="round" stroke-linejoin="round" stroke-miterlimit="10" stroke-width="20.1764"/>
<path clip-rule="evenodd" d="    M1955.314-109.121c22.033,0,39.98-17.976,39.98-39.981c0-22.034-17.947-39.981-39.98-39.981    c-22.005,0-39.979,17.947-39.979,39.981C1915.335-127.097,1933.31-109.121,1955.314-109.121L1955.314-109.121z" fill="#F9E5D3" fill-rule="evenodd" stroke="#6C6CAA" stroke-linecap="round" stroke-linejoin="round" stroke-miterlimit="10" stroke-width="20.1764"/>
<line fill="none" stroke="#6C6CAA" stroke-linecap="round" stroke-linejoin="round" stroke-miterlimit="10" stroke-width="20.1764" x1="1742.726" x2="1742.726" y1="-149.103" y2="-149.359"/>
<line fill="none" stroke="#6C6CAA" stroke-linecap="round" stroke-linejoin="round" stroke-miterlimit="10" stroke-width="20.1764" x1="1955.314" x2="1955.314" y1="-148.874" y2="-149.103"/>
<line fill="none" stroke="#6C6CAA" stroke-linecap="round" stroke-linejoin="round" stroke-miterlimit="10" stroke-width="20.1764" x1="1854.836" x2="1854.836" y1="-420.512" y2="-363.584"/>
<line fill="none" stroke="#6C6CAA" stroke-linecap="round" stroke-linejoin="round" stroke-miterlimit="10" stroke-width="20.1764" x1="1990.522" x2="1990.522" y1="-422.941" y2="-363.584"/>
</g>
<g>
<polygon clip-rule="evenodd" fill="#F9E5D3" fill-rule="evenodd" points="    -186.93,218.074 -114,218.074 -114,255.34 -178.813,255.34 -178.813,232.649 -186.93,232.649   " stroke="#6C6CAA" stroke-linecap="round" stroke-linejoin="round" stroke-miterlimit="10" stroke-width="20.1764"/>
<path clip-rule="evenodd" d="    M-437.214,232.649h258.4v63.987c-19.147,22.691-44.324,31.322-76.417,23.777l-51.583-55.356l-55.068,60.758    c-28.321,0.743-53.469-8.059-75.332-26.749V232.649z" fill="#DCF2FF" fill-rule="evenodd" stroke="#6C6CAA" stroke-linecap="round" stroke-linejoin="round" stroke-miterlimit="10" stroke-width="20.1764"/>
<polygon clip-rule="evenodd" fill="#FDB7CA" fill-rule="evenodd" points="    -307.613,342.019 -266.147,308.696 -306.813,265.057 -350.595,313.383   " stroke="#6C6CAA" stroke-linecap="round" stroke-linejoin="round" stroke-miterlimit="10" stroke-width="20.1764"/>
<path d="    M-349.737,368.339c-0.943,17.919,3.229,29.607,25.12,30.379h34.007c18.805-0.914,23.063-10.459,23.092-27.549" fill="none" stroke="#6C6CAA" stroke-linecap="round" stroke-linejoin="round" stroke-miterlimit="10" stroke-width="20.1764"/>
<rect clip-rule="evenodd" fill="#FDB7CA" fill-rule="evenodd" height="184.274" stroke="#6C6CAA" stroke-linecap="round" stroke-linejoin="round" stroke-miterlimit="10" stroke-width="20.1764" width="31.607" x="-156.952" y="35"/>
<path clip-rule="evenodd" d="    M-128.603,410.063V255.34h-30.778v157.153c-14.546,27.063-35.122,42.039-64.786,38.866c-39.266-2.571-61.728-19.833-66.443-52.642    h-34.007c8.03,49.184,51.211,85.907,102.08,83.964C-173.784,480.796-136.719,459.647-128.603,410.063L-128.603,410.063z" fill="#FDB7CA" fill-rule="evenodd" stroke="#6C6CAA" stroke-linecap="round" stroke-linejoin="round" stroke-miterlimit="10" stroke-width="20.1764"/>
<path clip-rule="evenodd" d="    M-392.261,171.891h182.269c6.888,0,12.546,5.658,12.546,12.574l0,0c0,6.888-5.658,12.546-12.546,12.546h-182.269    c-6.916,0-12.545-5.658-12.545-12.546l0,0C-404.806,177.549-399.177,171.891-392.261,171.891L-392.261,171.891z" fill="#FDB7CA" fill-rule="evenodd" stroke="#6C6CAA" stroke-linecap="round" stroke-linejoin="round" stroke-miterlimit="10" stroke-width="20.1764"/>
<path d="    M-430.726,232.649c-5.173-14.861-0.286-27.578,24.805-35.98l4.315-3.858" fill="none" stroke="#6C6CAA" stroke-linecap="round" stroke-linejoin="round" stroke-miterlimit="10" stroke-width="20.1764"/>
<line fill="none" stroke="#6C6CAA" stroke-linecap="round" stroke-linejoin="round" stroke-miterlimit="10" stroke-width="20.1764" x1="-125.345" x2="-156.952" y1="93.329" y2="93.329"/>
</g>
<g>
<path d="    M20.869,318.671c19.118-10.174,35.351-10.831,47.667,1.686c18.375,18.405,42.324,22.491,76.587,0    c21.091-12.031,51.012-16.347,69.816,0c28.663,22.463,51.039,22.949,80.018,0c22.262-16.918,47.81-13.432,68.071,3.401    c28.378,18.547,56.756,18.376,85.133-1.687c6.088-8.773,21.119-7.116,40.838,0" fill="none" stroke="#6C6CAA" stroke-linecap="round" stroke-linejoin="round" stroke-miterlimit="10" stroke-width="20.1764"/>
<path d="    M104.287,368.026c40.294-5.858,76.846-38.695,114.911-3.4c20.434,11.517,45.639,12.603,77.445-0.857    c30.436-14.946,56.955-17.09,78.303-2.544c18.919,14.89,46.354,14.061,69.815,1.715" fill="none" stroke="#6C6CAA" stroke-linecap="round" stroke-linejoin="round" stroke-miterlimit="10" stroke-width="20.1764"/>
<path d="    M161.3,392.718c17.461-7.345,34.064-8.23,47.668,2.543c24.862,11.975,50.354,16.147,77.474,0.857    c20.062-5.572,37.494-9.717,61.271-0.857" fill="none" stroke="#6C6CAA" stroke-linecap="round" stroke-linejoin="round" stroke-miterlimit="10" stroke-width="20.1764"/>
<path clip-rule="evenodd" d="M344.911,216.846c-20.318-22.434-49.668-36.495-82.304-36.495    c-58.499,0-106.423,45.183-110.767,102.568c-0.229,2.973-1.543,8.145,1.086,8.145l216.133-0.313    C363.258,253.598,359.058,235.822,344.911,216.846L344.911,216.846z" fill="#F5D8B3" fill-rule="evenodd"/>
<line fill="none" stroke="#6C6CAA" stroke-linecap="round" stroke-linejoin="round" stroke-miterlimit="10" stroke-width="20.1764" x1="256.635" x2="256.635" y1="93.102" y2="145.028"/>
<line fill="none" stroke="#6C6CAA" stroke-linecap="round" stroke-linejoin="round" stroke-miterlimit="10" stroke-width="20.1764" x1="389.436" x2="351.112" y1="150.973" y2="188.439"/>
<line fill="none" stroke="#6C6CAA" stroke-linecap="round" stroke-linejoin="round" stroke-miterlimit="10" stroke-width="20.1764" x1="321.335" x2="308.561" y1="137.37" y2="155.231"/>
<line fill="none" stroke="#6C6CAA" stroke-linecap="round" stroke-linejoin="round" stroke-miterlimit="10" stroke-width="20.1764" x1="191.964" x2="203.88" y1="136.512" y2="155.459"/>
<line fill="none" stroke="#6C6CAA" stroke-linecap="round" stroke-linejoin="round" stroke-miterlimit="10" stroke-width="20.1764" x1="108.546" x2="130.665" y1="221.619" y2="234.393"/>
<line fill="none" stroke="#6C6CAA" stroke-linecap="round" stroke-linejoin="round" stroke-miterlimit="10" stroke-width="20.1764" x1="66.822" x2="123.005" y1="283.777" y2="283.777"/>
<line fill="none" stroke="#6C6CAA" stroke-linecap="round" stroke-linejoin="round" stroke-miterlimit="10" stroke-width="20.1764" x1="393.265" x2="410.926" y1="228.021" y2="224.391"/>
<path clip-rule="evenodd" d="    M45.103,185.038h119.169c26.377-52.784-60.214-63.444-68.102-28.95C65.793,136.369,34.043,154.517,45.103,185.038L45.103,185.038z    " fill="#DCF2FF" fill-rule="evenodd" stroke="#6C6CAA" stroke-linecap="round" stroke-linejoin="round" stroke-miterlimit="10" stroke-width="20.1764"/>
<path clip-rule="evenodd" d="    M291.242,280.291h118.312c3.287-26.55-13.889-32.208-49.354-28.093C315.248,224.762,284.27,249.254,291.242,280.291    L291.242,280.291z" fill="#DCF2FF" fill-rule="evenodd" stroke="#6C6CAA" stroke-linecap="round" stroke-linejoin="round" stroke-miterlimit="10" stroke-width="20.1764"/>
<path d="    M344.911,216.846c-20.318-22.434-49.668-36.495-82.304-36.495c-58.499,0-106.423,45.183-110.767,102.568" fill="none" stroke="#6C6CAA" stroke-linecap="round" stroke-linejoin="round" stroke-miterlimit="10" stroke-width="20.1764"/>
</g>
<g>
<polygon fill="none" points="    683.069,146.803 665.608,182.354 704.788,202.588   " stroke="#6C6CAA" stroke-linecap="round" stroke-linejoin="round" stroke-miterlimit="10" stroke-width="20.1478"/>
<path clip-rule="evenodd" d="    M883.97,204.103C963.616,215.42,1019,240.426,1019,269.49c0,39.667-103.138,71.817-230.365,71.817    c-127.199,0-230.336-32.15-230.336-71.817c0-21.063,29.092-40.01,75.444-53.156l54.299,12.174l16.746-25.921    c-8.916,20.063-14.289,43.325-14.975,68.274c65.614,38.952,135.658,33.322,208.503,0    C897.658,246.542,892.515,223.793,883.97,204.103L883.97,204.103z" fill="#F9E5D3" fill-rule="evenodd" stroke="#6C6CAA" stroke-linecap="round" stroke-linejoin="round" stroke-miterlimit="10" stroke-width="20.1478"/>
<path clip-rule="evenodd" d="    M794.064,134c56.298,0,102.165,60.786,104.252,136.862c-72.845,33.322-142.889,38.952-208.503,0    C691.899,194.786,737.767,134,794.064,134L794.064,134z" fill="#F9E5D3" fill-rule="evenodd" stroke="#6C6CAA" stroke-linecap="round" stroke-linejoin="round" stroke-miterlimit="10" stroke-width="20.1478"/>
<polygon fill="none" points="    647.376,172.952 633.743,216.334 688.042,228.509 704.788,202.588   " stroke="#6C6CAA" stroke-linecap="round" stroke-linejoin="round" stroke-miterlimit="10" stroke-width="20.1478"/>
<path d="    M846.162,251.114c-57.527,20.834-104.595,13.632-150.062-13.403" fill="none" stroke="#6C6CAA" stroke-linecap="round" stroke-linejoin="round" stroke-miterlimit="10" stroke-width="20.1478"/>
<line fill="none" stroke="#6C6CAA" stroke-linecap="round" stroke-linejoin="round" stroke-miterlimit="10" stroke-width="20.1478" x1="872.996" x2="872.996" y1="242.283" y2="242.055"/>
</g>
<g>
<path clip-rule="evenodd" d="    M1170.418,386.272c6.887-85.021,93.277-120.544,171.58-113.514l-0.486,0.457c-0.743,0.687-1.485,1.372-2.229,2.058l-0.486,0.457    c-0.8,0.715-1.601,1.43-2.4,2.173l-0.457,0.428c-0.801,0.715-1.601,1.43-2.4,2.144l-0.458,0.429    c-0.886,0.771-1.771,1.572-2.657,2.372l-0.086,0.086l-0.028,0.028l-0.086,0.058c-0.914,0.8-1.829,1.629-2.771,2.458l-0.258,0.229    c-1,0.886-1.972,1.743-2.972,2.629h-0.028l0,0c-1.029,0.914-2.087,1.857-3.173,2.772l33.208,19.348    c1.057-1.258,2.114-2.516,3.172-3.744l0.2-0.229l0.085-0.086c1.029-1.229,2.029-2.4,3.029-3.601l0.343-0.4    c0.887-1.028,1.744-2.058,2.63-3.087l0.8-0.972c0.715-0.856,1.429-1.686,2.115-2.543l1.2-1.4c0.543-0.686,1.086-1.343,1.657-2    c0.515-0.629,1.058-1.286,1.571-1.915l0.943-1.144l0.372-0.457c0.657-0.771,1.285-1.543,1.914-2.314l0.372-0.458l0.171-0.199    c0.687-0.857,1.372-1.715,2.058-2.544l0.343-0.457l0.372-0.429c0.714-0.915,1.429-1.801,2.144-2.687l0.343-0.429    c52.926,15.175,94.049,51.984,90.22,107.855c-36.608,26.892-61.07,30.578-95.964,8.459    c-47.382-34.694-85.677-12.261-122.484-0.058C1221.343,406.163,1196.537,412.394,1170.418,386.272L1170.418,386.272z" fill="#B0F0A8" fill-rule="evenodd" stroke="#6C6CAA" stroke-linecap="round" stroke-linejoin="round" stroke-miterlimit="10" stroke-width="20.1764"/>
<path clip-rule="evenodd" d="    M1461.796,79.254c20.719,0,38.693,11.717,47.695,28.893h-95.421C1423.072,90.971,1441.076,79.254,1461.796,79.254L1461.796,79.254    z" fill="#B0F0A8" fill-rule="evenodd" stroke="#6C6CAA" stroke-linecap="round" stroke-linejoin="round" stroke-miterlimit="10" stroke-width="20.1764"/>
<path clip-rule="evenodd" d="    M1378.948,55.248c14.403,7.773,22.491,22.691,22.291,37.981l-66.3-35.866C1347.628,48.818,1364.546,47.446,1378.948,55.248    L1378.948,55.248z" fill="#B0F0A8" fill-rule="evenodd" stroke="#6C6CAA" stroke-linecap="round" stroke-linejoin="round" stroke-miterlimit="10" stroke-width="20.1764"/>
<path clip-rule="evenodd" d="    M1434.104,55.248c-14.403,7.773-22.49,22.691-22.29,37.981l66.3-35.866C1465.425,48.818,1448.507,47.446,1434.104,55.248    L1434.104,55.248z" fill="#B0F0A8" fill-rule="evenodd" stroke="#6C6CAA" stroke-linecap="round" stroke-linejoin="round" stroke-miterlimit="10" stroke-width="20.1764"/>
<path clip-rule="evenodd" d="    M1359.287,79.254c20.719,0,38.723,11.717,47.696,28.893h-95.392C1320.564,90.971,1338.568,79.254,1359.287,79.254L1359.287,79.254    z" fill="#B0F0A8" fill-rule="evenodd" stroke="#6C6CAA" stroke-linecap="round" stroke-linejoin="round" stroke-miterlimit="10" stroke-width="20.1764"/>
<path clip-rule="evenodd" d="    M1359.116,125.265c12.06-11.66,29.092-14.975,43.98-10.06l-55.44,53.67C1343.227,153.844,1347.085,136.925,1359.116,125.265    L1359.116,125.265z" fill="#B0F0A8" fill-rule="evenodd" stroke="#6C6CAA" stroke-linecap="round" stroke-linejoin="round" stroke-miterlimit="10" stroke-width="20.1764"/>
<path clip-rule="evenodd" d="    M1466.739,125.265c-12.06-11.66-29.092-14.975-43.98-10.06l55.44,53.67C1482.629,153.844,1478.771,136.925,1466.739,125.265    L1466.739,125.265z" fill="#B0F0A8" fill-rule="evenodd" stroke="#6C6CAA" stroke-linecap="round" stroke-linejoin="round" stroke-miterlimit="10" stroke-width="20.1764"/>
<path clip-rule="evenodd" d="    M1321.021,291.535c68.358-59.615,88.819-87.822,91.335-190.133c20.032,107.055,15.26,123.602-58.127,209.48L1321.021,291.535z" fill="#F5D8B3" fill-rule="evenodd" stroke="#6C6CAA" stroke-linecap="round" stroke-linejoin="round" stroke-miterlimit="10" stroke-width="20.1764"/>
<path d="    M1090,385.672c26.977-5.372,36.493-5.029,55.897,18.319c18.861,23.863,43.152,33.408,74.188,34.094    c39.122,0.114,54.525-26.949,92.963-27.121c39.951,1.601,51.383,23.635,90.477,32.037c29.007,7.23,55.498-14.146,89.963-34.866    c34.922-20.891,41.98-17.947,60.585-4.087" fill="none" stroke="#6C6CAA" stroke-linecap="round" stroke-linejoin="round" stroke-miterlimit="10" stroke-width="20.1764"/>
<path d="    M1144.926,448.402c24.834,21.434,49.84,27.235,72.873,28.178c39.952,0.715,59.984-30.836,93.535-28.407    c55.498,11.432,84.476,57.071,150.404,16.204" fill="none" stroke="#6C6CAA" stroke-linecap="round" stroke-linejoin="round" stroke-miterlimit="10" stroke-width="20.1764"/>
<line fill="none" stroke="#6C6CAA" stroke-linecap="round" stroke-linejoin="round" stroke-miterlimit="10" stroke-width="20.1764" x1="1497.832" x2="1525.181" y1="444.716" y2="429.426"/>
<path clip-rule="evenodd" d="    M1129.723,111.519c-33.551-10.688-14.889-58.271,21.233-37.667c-11.146-44.64,67.129-48.641,55.955,1.086    c28.006-31.951,68.358,16.861,32.292,36.581H1129.723z" fill="#DCF2FF" fill-rule="evenodd" stroke="#6C6CAA" stroke-linecap="round" stroke-linejoin="round" stroke-miterlimit="10" stroke-width="20.1764"/>
<path clip-rule="evenodd" d="    M1219.229,179.25c-29.521-11.231,10.287-67.216,48.953-23.206c20.461-23.292,46.067,14.089,20.49,23.206H1219.229z" fill="#DCF2FF" fill-rule="evenodd" stroke="#6C6CAA" stroke-linecap="round" stroke-linejoin="round" stroke-miterlimit="10" stroke-width="20.1764"/>
<line fill="none" stroke="#6C6CAA" stroke-linecap="round" stroke-linejoin="round" stroke-miterlimit="10" stroke-width="20.1764" x1="1124.893" x2="1124.893" y1="428.111" y2="427.911"/>
</g>
<g>
<polygon clip-rule="evenodd" fill="#F9E5D3" fill-rule="evenodd" points="    1808.108,186.875 1910.273,186.875 1915.046,295.617 1897.5,295.617 1897.5,324.424 1870.322,324.424 1870.322,295.931     1840.687,295.96 1840.516,324.538 1815.31,324.767 1815.31,295.617 1796.534,295.417   " stroke="#6C6CAA" stroke-linecap="round" stroke-linejoin="round" stroke-miterlimit="10" stroke-width="20.1478"/>
<polygon clip-rule="evenodd" fill="#F9E5D3" fill-rule="evenodd" points="    1647.645,459.343 1656.161,303.476 1684.31,303.476 1689.54,227.486 1760.298,227.486 1760.298,299.532 1785.161,300.847     1785.732,459.429   " stroke="#6C6CAA" stroke-linecap="round" stroke-linejoin="round" stroke-miterlimit="10" stroke-width="20.1478"/>
<polygon clip-rule="evenodd" fill="#F9E5D3" fill-rule="evenodd" points="    2060.621,460.515 2055.02,302.161 2032.729,300.847 2032.729,230.115 1958.084,230.115 1958.084,298.218 1930.564,299.532     1929.249,460.657   " stroke="#6C6CAA" stroke-linecap="round" stroke-linejoin="round" stroke-miterlimit="10" stroke-width="20.1478"/>
<polygon clip-rule="evenodd" fill="#F9E5D3" fill-rule="evenodd" points="    1815.31,295.617 1785.161,295.273 1785.732,459.429 1929.249,460.657 1930.25,295.617 1897.5,295.617 1897.5,324.424     1870.322,324.424 1870.322,295.931 1840.687,295.96 1840.516,324.538 1815.31,324.767   " stroke="#6C6CAA" stroke-linecap="round" stroke-linejoin="round" stroke-miterlimit="10" stroke-width="20.1478"/>
<polygon clip-rule="evenodd" fill="#F9E5D3" fill-rule="evenodd" points="    1829.228,128.118 1889.47,128.118 1895.699,186.875 1822.026,186.875   " stroke="#6C6CAA" stroke-linecap="round" stroke-linejoin="round" stroke-miterlimit="10" stroke-width="20.1478"/>
<line fill="none" stroke="#6C6CAA" stroke-linecap="round" stroke-linejoin="round" stroke-miterlimit="10" stroke-width="20.1478" x1="1856.063" x2="1856.063" y1="61.302" y2="128.118"/>
<polygon clip-rule="evenodd" fill="#B0F0A8" fill-rule="evenodd" points="    1903.559,81.278 1856.063,104.513 1856.063,61.302   " stroke="#6C6CAA" stroke-linecap="round" stroke-linejoin="round" stroke-miterlimit="10" stroke-width="20.1478"/>
<line fill="none" stroke="#6C6CAA" stroke-linecap="round" stroke-linejoin="round" stroke-miterlimit="10" stroke-width="20.1478" x1="1720.661" x2="1720.661" y1="161.669" y2="227.486"/>
<polygon clip-rule="evenodd" fill="#B0F0A8" fill-rule="evenodd" points="    1762.585,182.303 1720.661,203.594 1720.661,161.669   " stroke="#6C6CAA" stroke-linecap="round" stroke-linejoin="round" stroke-miterlimit="10" stroke-width="20.1478"/>
<line fill="none" stroke="#6C6CAA" stroke-linecap="round" stroke-linejoin="round" stroke-miterlimit="10" stroke-width="20.1478" x1="1991.806" x2="1991.806" y1="160.041" y2="230.115"/>
<polygon clip-rule="evenodd" fill="#B0F0A8" fill-rule="evenodd" points="    2035.701,180.988 1991.806,203.251 1991.806,160.041   " stroke="#6C6CAA" stroke-linecap="round" stroke-linejoin="round" stroke-miterlimit="10" stroke-width="20.1478"/>
<path clip-rule="evenodd" d="    M1857.377,248.291c8.659,0,15.718-7.059,15.718-15.718s-7.059-15.718-15.718-15.718s-15.718,7.059-15.718,15.718    S1848.718,248.291,1857.377,248.291L1857.377,248.291z" fill="#DBBEB9" fill-rule="evenodd" stroke="#6C6CAA" stroke-linecap="round" stroke-linejoin="round" stroke-miterlimit="10" stroke-width="20.1478"/>
<path clip-rule="evenodd" d="    M1720.946,367.377c8.66,0,15.719-7.059,15.719-15.718c0-8.631-7.059-15.718-15.719-15.718c-8.658,0-15.717,7.087-15.717,15.718    C1705.229,360.318,1712.288,367.377,1720.946,367.377L1720.946,367.377z" fill="#DBBEB9" fill-rule="evenodd" stroke="#6C6CAA" stroke-linecap="round" stroke-linejoin="round" stroke-miterlimit="10" stroke-width="20.1478"/>
<path clip-rule="evenodd" d="    M1994.949,369.32c8.659,0,15.718-7.059,15.718-15.718s-7.059-15.718-15.718-15.718c-8.658,0-15.718,7.059-15.718,15.718    S1986.291,369.32,1994.949,369.32L1994.949,369.32z" fill="#DBBEB9" fill-rule="evenodd" stroke="#6C6CAA" stroke-linecap="round" stroke-linejoin="round" stroke-miterlimit="10" stroke-width="20.1478"/>
<path clip-rule="evenodd" d="    M1850.118,378.58h12.231c13.488,0,24.49,11.003,24.49,24.491v57.157h-61.213v-57.157    C1825.627,389.583,1836.63,378.58,1850.118,378.58L1850.118,378.58z" fill="#DBBEB9" fill-rule="evenodd" stroke="#6C6CAA" stroke-linecap="round" stroke-linejoin="round" stroke-miterlimit="10" stroke-width="20.1478"/>
<line fill="none" stroke="#6C6CAA" stroke-linecap="round" stroke-linejoin="round" stroke-miterlimit="10" stroke-width="20.1478" x1="1704.629" x2="1684.31" y1="303.476" y2="303.476"/>
<line fill="none" stroke="#6C6CAA" stroke-linecap="round" stroke-linejoin="round" stroke-miterlimit="10" stroke-width="20.1478" x1="2016.04" x2="2043.875" y1="301.504" y2="301.504"/>
<line fill="none" stroke="#6C6CAA" stroke-linecap="round" stroke-linejoin="round" stroke-miterlimit="10" stroke-width="20.1478" x1="1990.034" x2="1990.034" y1="302.333" y2="302.133"/>
<line fill="none" stroke="#6C6CAA" stroke-linecap="round" stroke-linejoin="round" stroke-miterlimit="10" stroke-width="20.1478" x1="1728.663" x2="1728.663" y1="303.161" y2="302.99"/>
<line fill="none" stroke="#6C6CAA" stroke-linecap="round" stroke-linejoin="round" stroke-miterlimit="10" stroke-width="20.1478" x1="1614.238" x2="2093" y1="461" y2="461"/>
</g>
<g>
<path clip-rule="evenodd" d="    M1844.983,616.542h8.46c6.973,0,12.688,5.716,12.688,12.689v13.804l-16.918-3.916l-16.947,3.772v-13.661    C1832.267,622.258,1837.982,616.542,1844.983,616.542L1844.983,616.542z" fill="#F4B1C3" fill-rule="evenodd" stroke="#6C6CAA" stroke-linecap="round" stroke-linejoin="round" stroke-miterlimit="10" stroke-width="20.1478"/>
<path clip-rule="evenodd" d="    M1710.812,669.87l138.402-30.75l133.915,31.093c12.06,3.487,22.033,7.23,26.806,19.776l31.178,163.612l31.521,57.157    c19.262,34.923,12.488,23.806-27.12,16.918c-127.257-22.091-254.513-24.377-381.77-1.571    c-40.466,7.259-52.726,21.319-32.406-14.575l34.436-60.758l28.092-160.783C1695.037,679.357,1701.038,672.985,1710.812,669.87    L1710.812,669.87z" fill="#DCF2FF" fill-rule="evenodd" stroke="#6C6CAA" stroke-linecap="round" stroke-linejoin="round" stroke-miterlimit="10" stroke-width="20.1478"/>
<path d="    M1665.773,850.771c131.086-30.865,255.542-26.521,375.339,2.829" fill="none" stroke="#6C6CAA" stroke-linecap="round" stroke-linejoin="round" stroke-miterlimit="10" stroke-width="20.1478"/>
<path clip-rule="evenodd" d="    M1844.069,728.713c-72.273-70.846-101.594,45.84-9.174,20.833c-52.84,50.841,16.519,61.215,22.52,12.432    c50.697,69.074,72.33-41.182,9.917-26.006C1932.089,690.274,1829.237,659.639,1844.069,728.713L1844.069,728.713z" fill="#F9E5D3" fill-rule="evenodd" stroke="#6C6CAA" stroke-linecap="round" stroke-linejoin="round" stroke-miterlimit="10" stroke-width="20.1478"/>
</g>
<g>
<path clip-rule="evenodd" d="    M1120.305,806.756c2.858-30.036,16.49-44.497,38.608-46.668h117.455c26.177,8.316,32.807,29.264,22.52,61.158    c-23.463,113.456-178.153,110.941-178.583,50.67V806.756z" fill="#929FC5" fill-rule="evenodd" stroke="#6C6CAA" stroke-linecap="round" stroke-linejoin="round" stroke-miterlimit="10" stroke-width="20.1764"/>
<path clip-rule="evenodd" d="    M1525.308,806.756c-2.829-30.036-16.46-44.497-38.608-46.668h-117.426c-26.205,8.316-32.807,29.264-22.547,61.158    c23.462,113.456,178.182,110.941,178.581,50.67V806.756z" fill="#929FC5" fill-rule="evenodd" stroke="#6C6CAA" stroke-linecap="round" stroke-linejoin="round" stroke-miterlimit="10" stroke-width="20.1764"/>
<polyline fill="none" points="    1141.624,669.608 1090.156,719.478 1090.156,813.586 1120.305,813.586   " stroke="#6C6CAA" stroke-linecap="round" stroke-linejoin="round" stroke-miterlimit="10" stroke-width="20.1764"/>
<polyline fill="none" points="    1503.503,669.608 1555,719.478 1555,813.586 1524.822,813.586   " stroke="#6C6CAA" stroke-linecap="round" stroke-linejoin="round" stroke-miterlimit="10" stroke-width="20.1764"/>
<line fill="none" stroke="#6C6CAA" stroke-linecap="round" stroke-linejoin="round" stroke-miterlimit="10" stroke-width="20.1764" x1="1276.368" x2="1369.273" y1="760.088" y2="760.088"/>
<line fill="none" stroke="#6C6CAA" stroke-linecap="round" stroke-linejoin="round" stroke-miterlimit="10" stroke-width="20.1764" x1="1303.03" x2="1342.611" y1="803.298" y2="803.298"/>
<line fill="none" stroke="#6C6CAA" stroke-linecap="round" stroke-linejoin="round" stroke-miterlimit="10" stroke-width="20.1764" x1="1213.211" x2="1156.112" y1="795.096" y2="861.055"/>
<line fill="none" stroke="#6C6CAA" stroke-linecap="round" stroke-linejoin="round" stroke-miterlimit="10" stroke-width="20.1764" x1="1242.018" x2="1219.813" y1="816.988" y2="843.965"/>
<line fill="none" stroke="#6C6CAA" stroke-linecap="round" stroke-linejoin="round" stroke-miterlimit="10" stroke-width="20.1764" x1="1426.887" x2="1483.984" y1="795.096" y2="861.055"/>
<line fill="none" stroke="#6C6CAA" stroke-linecap="round" stroke-linejoin="round" stroke-miterlimit="10" stroke-width="20.1764" x1="1398.08" x2="1420.313" y1="816.988" y2="843.965"/>
</g>
<g>
<path clip-rule="evenodd" d="    M800.797,562.8c113.939,4.944,205.873,94.88,213.904,208.022c-1.43-0.457-2.943-0.686-4.486-0.686h-32.408h-0.057    c-8.174-91.937-82.646-164.812-175.324-170.442v-29.921C802.426,567.258,801.826,564.886,800.797,562.8L800.797,562.8z     M1014.873,800.802c-6.916,113.742-98.508,204.593-212.533,210.309c0.057-0.6,0.086-1.2,0.086-1.8v-32.408    c0-0.886-0.057-1.772-0.199-2.63c93.506-5.572,168.578-79.647,175.723-172.756h32.266    C1011.814,801.517,1013.387,801.287,1014.873,800.802L1014.873,800.802z M771.047,600.381    c-88.791,9.316-159.121,80.591-167.065,169.785c-0.286,0-0.6-0.028-0.886-0.028h-32.407c-1.257,0-2.458,0.143-3.629,0.428    c7.945-110.17,95.478-198.306,205.388-207.251c-0.887,1.972-1.4,4.173-1.4,6.459V600.381z M603.811,801.517    c6.916,90.394,77.875,162.868,167.58,172.099c-0.229,1.058-0.343,2.172-0.343,3.287v32.408c0,0.399,0.028,0.8,0.057,1.229    c-110.053-9.631-197.329-98.653-204.187-209.48c1.2,0.314,2.458,0.458,3.772,0.458h32.407    C603.325,801.517,603.554,801.517,603.811,801.517L603.811,801.517z" fill="#F5D8B3" fill-rule="evenodd" stroke="#6C6CAA" stroke-linecap="round" stroke-linejoin="round" stroke-miterlimit="10" stroke-width="20.1764"/>
<path clip-rule="evenodd" d="    M802.426,600.724c92.105,5.63,166.15,78.048,174.324,169.471c-8.145,0.543-14.633,7.373-14.633,15.632l0,0    c0,8.345,6.574,15.232,14.832,15.661c-7.145,92.623-81.875,166.298-174.953,171.785c-1.629-6.887-7.857-12.06-15.259-12.06l0,0    c-7.145,0-13.203,4.829-15.09,11.402c-89.305-9.116-159.949-81.248-166.836-171.185c7.83-0.857,13.975-7.545,13.975-15.604l0,0    c0-7.974-6.059-14.604-13.775-15.575c7.859-88.679,77.789-159.525,166.037-168.842v0.771c0,8.631,7.059,15.69,15.689,15.69l0,0    c8.63,0,15.689-7.059,15.689-15.69V600.724z M790.881,702.377c46.725,0,84.59,37.895,84.59,84.592    c0,46.726-37.865,84.621-84.59,84.621c-46.725,0-84.59-37.896-84.59-84.621C706.291,740.272,744.156,702.377,790.881,702.377    L790.881,702.377z" fill="#FDB7CA" fill-rule="evenodd" stroke="#6C6CAA" stroke-linecap="round" stroke-linejoin="round" stroke-miterlimit="10" stroke-width="20.1764"/>
<line fill="none" stroke="#6C6CAA" stroke-linecap="round" stroke-linejoin="round" stroke-miterlimit="10" stroke-width="20.1764" x1="935.826" x2="850.693" y1="669.426" y2="727.155"/>
<line fill="none" stroke="#6C6CAA" stroke-linecap="round" stroke-linejoin="round" stroke-miterlimit="10" stroke-width="20.1764" x1="643.448" x2="728.552" y1="669.426" y2="727.155"/>
<line fill="none" stroke="#6C6CAA" stroke-linecap="round" stroke-linejoin="round" stroke-miterlimit="10" stroke-width="20.1764" x1="643.448" x2="728.552" y1="904.827" y2="847.07"/>
<line fill="none" stroke="#6C6CAA" stroke-linecap="round" stroke-linejoin="round" stroke-miterlimit="10" stroke-width="20.1764" x1="935.826" x2="850.693" y1="904.827" y2="847.07"/>
<path clip-rule="evenodd" d="    M786.737,961.213L786.737,961.213c8.63,0,15.689,7.059,15.689,15.689v32.408c0,8.63-7.059,15.689-15.689,15.689l0,0    c-8.631,0-15.689-7.06-15.689-15.689v-32.408C771.047,968.271,778.106,961.213,786.737,961.213L786.737,961.213z" fill="#F9E5D3" fill-rule="evenodd" stroke="#6C6CAA" stroke-linecap="round" stroke-linejoin="round" stroke-miterlimit="10" stroke-width="20.1764"/>
<path clip-rule="evenodd" d="    M786.737,554.084L786.737,554.084c8.63,0,15.689,7.059,15.689,15.689v32.408c0,8.631-7.059,15.69-15.689,15.69l0,0    c-8.631,0-15.689-7.059-15.689-15.69v-32.408C771.047,561.143,778.106,554.084,786.737,554.084L786.737,554.084z" fill="#F9E5D3" fill-rule="evenodd" stroke="#6C6CAA" stroke-linecap="round" stroke-linejoin="round" stroke-miterlimit="10" stroke-width="20.1764"/>
<path clip-rule="evenodd" d="    M555,785.827L555,785.827c0-8.631,7.059-15.689,15.689-15.689h32.407c8.63,0,15.689,7.059,15.689,15.689l0,0    c0,8.63-7.059,15.69-15.689,15.69h-32.407C562.059,801.517,555,794.457,555,785.827L555,785.827z" fill="#F9E5D3" fill-rule="evenodd" stroke="#6C6CAA" stroke-linecap="round" stroke-linejoin="round" stroke-miterlimit="10" stroke-width="20.1764"/>
<path clip-rule="evenodd" d="    M962.117,785.827L962.117,785.827c0-8.631,7.059-15.689,15.689-15.689h32.408c8.629,0,15.688,7.059,15.688,15.689l0,0    c0,8.63-7.059,15.69-15.688,15.69h-32.408C969.176,801.517,962.117,794.457,962.117,785.827L962.117,785.827z" fill="#F9E5D3" fill-rule="evenodd" stroke="#6C6CAA" stroke-linecap="round" stroke-linejoin="round" stroke-miterlimit="10" stroke-width="20.1764"/>
</g>
<g>
<path clip-rule="evenodd" d="    M237.533,1016c-8.316-51.299-34.15-85.05-78.56-100.225V785.743c-61.985-8.659-60.757-108.141-10.831-121.916l2.457,0.028V563.231    h27.264c8.116,93.994-29.578,144.064,69.873,156.267c100.735-6.744,79.702-80.706,81.132-156.267h27.263v103.311h0.601    c51.325,24.806,45.724,105.34-1.372,119.201l-1.343,127.317c-49.354,16.118-78.446,50.669-88.048,102.939H237.533z" fill="#FDB7CA" fill-rule="evenodd" stroke="#6C6CAA" stroke-linecap="round" stroke-linejoin="round" stroke-miterlimit="10" stroke-width="20.1764"/>
<line fill="none" stroke="#6C6CAA" stroke-linecap="round" stroke-linejoin="round" stroke-miterlimit="10" stroke-width="20.1764" x1="185.207" x2="155.744" y1="785.4" y2="785.4"/>
<line fill="none" stroke="#6C6CAA" stroke-linecap="round" stroke-linejoin="round" stroke-miterlimit="10" stroke-width="20.1764" x1="354.159" x2="324.695" y1="786.744" y2="786.744"/>
<line fill="none" stroke="#6C6CAA" stroke-linecap="round" stroke-linejoin="round" stroke-miterlimit="10" stroke-width="20.1764" x1="209.584" x2="209.584" y1="787.144" y2="786.915"/>
</g>
<g>
<path clip-rule="evenodd" d="    M-276.072,1020c24.891-34.666,53.097-43.611,75.302-60.673c46.582-35.809,79.646-65.559,95.05-122.944l25.462,17.233    l-8.43-106.198l-64.357,66.245l20.833,17.062c-16.261,31.551-82.161,119.743-113.567,58.672l-9.859-175.015h59.07v-35.98h-61.1    l-2.114-37.752c16.889-5.315,29.12-21.091,29.12-39.724c0-23.005-18.633-41.639-41.638-41.639s-41.637,18.633-41.637,41.639    c0,15.861,8.858,29.636,21.89,36.667l-2.028,40.81h-55.813v35.98h54.04l-8.602,173.128    c-41.466,59.301-84.533-25.32-114.511-59.644l19.861-25.549l-62.471-49.212L-468,859.103l20.633-21.776    c20.689,54.585,62.1,95.538,99.393,124.059C-326.855,975.846-300.048,987.22-276.072,1020L-276.072,1020z" fill="#929FC5" fill-rule="evenodd" stroke="#6C6CAA" stroke-linecap="round" stroke-linejoin="round" stroke-miterlimit="10" stroke-width="20.1478"/>
<line fill="none" stroke="#6C6CAA" stroke-linecap="round" stroke-linejoin="round" stroke-miterlimit="10" stroke-width="20.1478" x1="-275.129" x2="-275.129" y1="957.527" y2="1007.683"/>
<line fill="none" stroke="#6C6CAA" stroke-linecap="round" stroke-linejoin="round" stroke-miterlimit="10" stroke-width="20.1478" x1="-275.129" x2="-275.129" y1="920.632" y2="920.347"/>
<line fill="none" stroke="#6C6CAA" stroke-linecap="round" stroke-linejoin="round" stroke-miterlimit="10" stroke-width="20.1478" x1="-273.214" x2="-273.214" y1="598.839" y2="598.553"/>
</g>
<g>
<path clip-rule="evenodd" d="    M1870.926,1291.935c31.636,6.087,54.813,25.921,54.813,49.44c0,8.603-3.059,16.747-8.573,23.863    c-7.802,10.031-15.032,26.378-3.744,37.238c16.689,16.004,34.579,40.324,34.579,67.33c0,46.783-40.266,85.021-91.22,87.993v0.2    c-1.058,0-2.115-0.028-3.173-0.057c-1.085,0.028-2.144,0.057-3.2,0.057v-0.2c-50.926-2.972-91.221-41.21-91.221-87.993    c0-27.006,17.891-51.326,34.58-67.33c11.287-10.86,4.058-27.207-3.715-37.238c-5.516-7.116-8.603-15.261-8.603-23.863    c0-24.92,26.006-45.668,60.499-50.383v114.142c4.144-1.943,8.773-3.058,13.688-3.058c5.516,0,10.745,1.4,15.289,3.858V1291.935z" fill="#DBBEB9" fill-rule="evenodd" stroke="#6C6CAA" stroke-linecap="round" stroke-linejoin="round" stroke-miterlimit="10" stroke-width="20.1764"/>
<path clip-rule="evenodd" d="    M1841.948,1151.5h28.978v254.435c-4.544-2.458-9.773-3.858-15.289-3.858c-4.915,0-9.545,1.114-13.688,3.058V1151.5z" fill="#DBBEB9" fill-rule="evenodd" stroke="#6C6CAA" stroke-linecap="round" stroke-linejoin="round" stroke-miterlimit="10" stroke-width="20.1764"/>
<path clip-rule="evenodd" d="    M1855.637,1466.492c17.719,0,32.179-14.461,32.179-32.208c0-17.719-14.46-32.208-32.179-32.208    c-17.747,0-32.207,14.489-32.207,32.208C1823.43,1452.031,1837.89,1466.492,1855.637,1466.492L1855.637,1466.492z" fill="#DBBEB9" fill-rule="evenodd" stroke="#6C6CAA" stroke-linecap="round" stroke-linejoin="round" stroke-miterlimit="10" stroke-width="20.1764"/>
<line fill="none" stroke="#6C6CAA" stroke-linecap="round" stroke-linejoin="round" stroke-miterlimit="10" stroke-width="20.1764" x1="1825.03" x2="1889.444" y1="1489.812" y2="1489.812"/>
<path clip-rule="evenodd" d="    M1844.349,1086.57h26.577c5.744,0,10.46,4.715,10.46,10.46v41.867c0,5.744-4.716,10.46-10.46,10.46h-26.577    c-5.744,0-10.459-4.716-10.459-10.46v-41.867C1833.89,1091.285,1838.604,1086.57,1844.349,1086.57L1844.349,1086.57z" fill="#DBBEB9" fill-rule="evenodd" stroke="#6C6CAA" stroke-linecap="round" stroke-linejoin="round" stroke-miterlimit="10" stroke-width="20.1764"/>
</g>
<g>
<path clip-rule="evenodd" d="    M1352.473,1410.879v110.342c0,18.318-15.004,33.322-33.351,33.322l0,0c-18.318,0-33.321-15.004-33.321-33.322v-110.342H1352.473z" fill="#F9E5D3" fill-rule="evenodd" stroke="#6C6CAA" stroke-linecap="round" stroke-linejoin="round" stroke-miterlimit="10" stroke-width="20.1764"/>
<path clip-rule="evenodd" d="    M1319.951,1090L1319.951,1090c60.527,0,110.024,49.498,110.024,109.999v191.276c0.514,14.403-7.059,20.747-22.091,19.604h-177.496    c-15.976,0-21.119-5.001-20.433-18.776v-192.104C1209.956,1139.498,1259.452,1090,1319.951,1090L1319.951,1090z" fill="#F4B1C3" fill-rule="evenodd" stroke="#6C6CAA" stroke-linecap="round" stroke-linejoin="round" stroke-miterlimit="10" stroke-width="20.1764"/>
<path clip-rule="evenodd" d="    M1278.171,1177.993L1278.171,1177.993c9.945,0,18.09,8.117,18.09,18.062v150.551c0,9.917-8.145,18.062-18.09,18.062l0,0    c-9.917,0-18.062-8.145-18.062-18.062v-150.551C1260.109,1186.109,1268.254,1177.993,1278.171,1177.993L1278.171,1177.993z" fill="#F5D8B3" fill-rule="evenodd" stroke="#6C6CAA" stroke-linecap="round" stroke-linejoin="round" stroke-miterlimit="10" stroke-width="20.1764"/>
<path clip-rule="evenodd" d="    M1361.761,1177.993L1361.761,1177.993c9.916,0,18.061,8.117,18.061,18.062v150.551c0,9.917-8.145,18.062-18.061,18.062l0,0    c-9.945,0-18.09-8.145-18.09-18.062v-150.551C1343.671,1186.109,1351.815,1177.993,1361.761,1177.993L1361.761,1177.993z" fill="#F5D8B3" fill-rule="evenodd" stroke="#6C6CAA" stroke-linecap="round" stroke-linejoin="round" stroke-miterlimit="10" stroke-width="20.1764"/>
<path d="    M1252.422,1152.729c0,0,15.003-41.667,65.843-34.18" fill="none" stroke="#6C6CAA" stroke-linecap="round" stroke-linejoin="round" stroke-miterlimit="10" stroke-width="20.1764"/>
<line fill="none" stroke="#6C6CAA" stroke-linecap="round" stroke-linejoin="round" stroke-miterlimit="10" stroke-width="20.1764" x1="1350.815" x2="1350.815" y1="1129.181" y2="1128.981"/>
</g>
<g>
<path clip-rule="evenodd" d="    M764.929,1304.053L598.75,1179.736c-9.802-7.345-11.917-21.263-4.658-30.979l0,0c7.23-9.688,21.205-11.603,31.036-4.23    l139.801,104.569V1304.053z" fill="#F5D8B3" fill-rule="evenodd" stroke="#6C6CAA" stroke-linecap="round" stroke-linejoin="round" stroke-miterlimit="10" stroke-width="20.1478"/>
<path clip-rule="evenodd" d="    M1003.382,1317.913v190.476c0,26.206-18.633,47.611-41.409,47.611H607.409c-22.776,0-41.409-21.405-41.409-47.611v-190.476    h198.929v42.039c-7.858,5.916-12.945,15.289-12.945,25.892c0,17.862,14.489,32.352,32.35,32.352    c17.891,0,32.351-14.489,32.351-32.352c0-10.603-5.059-19.976-12.917-25.892v-42.039H1003.382z" fill="#F5D8B3" fill-rule="evenodd" stroke="#6C6CAA" stroke-linecap="round" stroke-linejoin="round" stroke-miterlimit="10" stroke-width="20.1478"/>
<path clip-rule="evenodd" d="    M784.333,1083.027L784.333,1083.027c10.688,0,19.434,8.745,19.434,19.405v257.521c7.858,5.916,12.917,15.289,12.917,25.892    c0,17.862-14.46,32.352-32.351,32.352c-17.86,0-32.35-14.489-32.35-32.352c0-10.603,5.087-19.976,12.945-25.892v-257.521    C764.929,1091.771,773.675,1083.027,784.333,1083.027L784.333,1083.027z" fill="#F9E5D3" fill-rule="evenodd" stroke="#6C6CAA" stroke-linecap="round" stroke-linejoin="round" stroke-miterlimit="10" stroke-width="20.1478"/>
<path clip-rule="evenodd" d="    M808.854,1272.616h189.298c10.746,0,19.519,9.888,19.519,21.977l0,0c0,12.117-8.772,22.005-19.519,22.005H808.854V1272.616z" fill="#F5D8B3" fill-rule="evenodd" stroke="#6C6CAA" stroke-linecap="round" stroke-linejoin="round" stroke-miterlimit="10" stroke-width="20.1478"/>
<line fill="none" stroke="#6C6CAA" stroke-linecap="round" stroke-linejoin="round" stroke-miterlimit="10" stroke-width="20.1478" x1="803.767" x2="1004.039" y1="1354.122" y2="1354.122"/>
<line fill="none" stroke="#6C6CAA" stroke-linecap="round" stroke-linejoin="round" stroke-miterlimit="10" stroke-width="20.1478" x1="634.587" x2="760.757" y1="1354.122" y2="1354.122"/>
<line fill="none" stroke="#6C6CAA" stroke-linecap="round" stroke-linejoin="round" stroke-miterlimit="10" stroke-width="20.1478" x1="595.121" x2="595.121" y1="1356.294" y2="1356.065"/>
</g>
<g>
<path clip-rule="evenodd" d="M365.473,1253.697v102.196c0,38.152-46.01,69.36-102.251,69.36    H244.36c-56.241,0-102.251-31.208-102.251-69.36v-102.196H365.473z" fill="#F5D8B3" fill-rule="evenodd"/>
<path clip-rule="evenodd" d="    M365.473,1113.748c32.321,0,58.527,26.207,58.527,58.529s-26.206,58.528-58.527,58.528v-58.528h-58.527    C306.945,1139.955,333.151,1113.748,365.473,1113.748L365.473,1113.748z" fill="#F9E5D3" fill-rule="evenodd" stroke="#6C6CAA" stroke-linecap="round" stroke-linejoin="round" stroke-miterlimit="10" stroke-width="20.1764"/>
<path clip-rule="evenodd" d="    M268.537,1514.333c46.096,1.485,81.246,9.23,81.246,18.576c0,10.402-43.58,18.833-97.335,18.833s-97.336-8.431-97.336-18.833    c0-9.603,37.151-17.548,85.161-18.69v-89.051c1.344,0.058,2.715,0.086,4.087,0.086h18.861c1.771,0,3.544-0.058,5.315-0.144    V1514.333z" fill="#FFFFFF" fill-rule="evenodd" stroke="#6C6CAA" stroke-linecap="round" stroke-linejoin="round" stroke-miterlimit="10" stroke-width="20.1764"/>
<path d="    M365.473,1172.277V1323c0,56.242-46.01,102.254-102.251,102.254H244.36c-56.241,0-102.251-46.012-102.251-102.254v-150.723    H365.473z" fill="none" stroke="#6C6CAA" stroke-linecap="round" stroke-linejoin="round" stroke-miterlimit="10" stroke-width="20.1764"/>
<line fill="none" stroke="#6C6CAA" stroke-linecap="round" stroke-linejoin="round" stroke-miterlimit="10" stroke-width="20.1764" x1="366.33" x2="366.33" y1="1113.833" y2="1172.277"/>
<line fill="none" stroke="#6C6CAA" stroke-linecap="round" stroke-linejoin="round" stroke-miterlimit="10" stroke-width="20.1764" x1="366.616" x2="418.713" y1="1172.563" y2="1172.563"/>
<line fill="none" stroke="#6C6CAA" stroke-linecap="round" stroke-linejoin="round" stroke-miterlimit="10" stroke-width="20.1764" x1="366.502" x2="406.854" y1="1169.248" y2="1210.857"/>
<line fill="none" stroke="#6C6CAA" stroke-linecap="round" stroke-linejoin="round" stroke-miterlimit="10" stroke-width="20.1764" x1="410.626" x2="369.531" y1="1135.039" y2="1170.619"/>
<line fill="none" stroke="#6C6CAA" stroke-linecap="round" stroke-linejoin="round" stroke-miterlimit="10" stroke-width="20.1764" x1="327.121" x2="367.502" y1="1127.923" y2="1169.533"/>
<line fill="none" stroke="#6C6CAA" stroke-linecap="round" stroke-linejoin="round" stroke-miterlimit="10" stroke-width="20.1764" x1="142.109" x2="365.473" y1="1253.697" y2="1253.697"/>
<path clip-rule="evenodd" d="    M255.049,1399.561c8.858,0,16.089-7.23,16.089-16.118c0-8.859-7.23-16.09-16.089-16.09c-8.859,0-16.09,7.23-16.09,16.09    C238.959,1392.331,246.189,1399.561,255.049,1399.561L255.049,1399.561z" fill="#B0F0A8" fill-rule="evenodd" stroke="#6C6CAA" stroke-linecap="round" stroke-linejoin="round" stroke-miterlimit="10" stroke-width="20.1764"/>
<path clip-rule="evenodd" d="    M308.946,1358.637c8.459,0,15.346-6.888,15.346-15.347c0-8.46-6.887-15.347-15.346-15.347s-15.347,6.887-15.347,15.347    C293.6,1351.75,300.487,1358.637,308.946,1358.637L308.946,1358.637z" fill="#B0F0A8" fill-rule="evenodd" stroke="#6C6CAA" stroke-linecap="round" stroke-linejoin="round" stroke-miterlimit="10" stroke-width="20.1764"/>
<path clip-rule="evenodd" d="    M283.655,1308.596c6.858,0,12.46-5.601,12.46-12.46s-5.602-12.46-12.46-12.46c-6.888,0-12.46,5.602-12.46,12.46    S276.768,1308.596,283.655,1308.596L283.655,1308.596z" fill="#B0F0A8" fill-rule="evenodd" stroke="#6C6CAA" stroke-linecap="round" stroke-linejoin="round" stroke-miterlimit="10" stroke-width="20.1764"/>
<polyline fill="none" points="    68.293,1093 183.318,1103.717 208.268,1251.468   " stroke="#6C6CAA" stroke-linecap="round" stroke-linejoin="round" stroke-miterlimit="10" stroke-width="20.1764"/>
</g>
<g>
<path d="    M-421.308,1199.484c0.886-72.847,100.993-69.76,98.422,0v237.201" fill="none" stroke="#6C6CAA" stroke-linecap="round" stroke-linejoin="round" stroke-miterlimit="10" stroke-width="20.1478"/>
<path d="    M-259.015,1199.484c0.857-72.847,100.993-69.76,98.422,0v237.201" fill="none" stroke="#6C6CAA" stroke-linecap="round" stroke-linejoin="round" stroke-miterlimit="10" stroke-width="20.1478"/>
<rect clip-rule="evenodd" fill="#F5D8B3" fill-rule="evenodd" height="32.379" stroke="#6C6CAA" stroke-linecap="round" stroke-linejoin="round" stroke-miterlimit="10" stroke-width="20.1478" width="162.293" x="-322.886" y="1246.353"/>
<rect clip-rule="evenodd" fill="#F5D8B3" fill-rule="evenodd" height="32.38" stroke="#6C6CAA" stroke-linecap="round" stroke-linejoin="round" stroke-miterlimit="10" stroke-width="20.1478" width="162.293" x="-322.886" y="1343.719"/>
<path d="    M-491.208,1425.053c21.69-15.432,42.209-23.548,68.3-8.83c26.807,17.261,61.985,33.779,100.022,20.462    c37.78-18.176,55.354-25.692,77.674-9.06c24.034,17.376,51.954,21.034,84.619,9.06c38.465-17.147,71.387-28.264,99.593,1.058" fill="none" stroke="#6C6CAA" stroke-linecap="round" stroke-linejoin="round" stroke-miterlimit="10" stroke-width="20.1478"/>
<path d="    M-435.367,1474.437c40.294,5.858,76.845,38.724,114.882,3.401c20.462-11.518,45.667-12.575,77.475,0.857    c30.435,14.975,56.927,17.118,78.303,2.571c18.918-14.889,46.353-14.061,69.786-1.714" fill="none" stroke="#6C6CAA" stroke-linecap="round" stroke-linejoin="round" stroke-miterlimit="10" stroke-width="20.1478"/>
<line fill="none" stroke="#6C6CAA" stroke-linecap="round" stroke-linejoin="round" stroke-miterlimit="10" stroke-width="20.1478" x1="-470.689" x2="-470.689" y1="1461.548" y2="1461.32"/>
</g>
</g>
</svg>