<?xml version="1.0" encoding="utf-8"?>

<!-- Uploaded to: SVG Repo, www.svgrepo.com, Generator: SVG Repo Mixer Tools -->
<svg version="1.1" id="Layer_1" xmlns="http://www.w3.org/2000/svg" xmlns:xlink="http://www.w3.org/1999/xlink" 
	 viewBox="0 0 100 100" enable-background="new 0 0 100 100" xml:space="preserve">
<g>
	<path fill="#53C2BA" d="M83.951,7.314L67.945,23.322L28.636,13.13l-5.812,5.826l32.019,17.469L38.827,52.441l-15.95-3.96
		l-2.726,2.734l22.706,14.656l20.715-20.72l17.466,32.022l5.821-5.817L76.674,32.052l16.003-16.012
		c2.421-2.417,2.421-6.312,0.004-8.734C90.268,4.897,86.369,4.897,83.951,7.314z"/>
	<polygon fill="#53C2BA" points="28.636,13.13 22.823,18.956 54.842,36.425 67.945,23.322 	"/>
	<g>
		
			<rect x="2.184" y="28.253" transform="matrix(0.7071 -0.7071 0.7071 0.7071 -16.5225 17.6312)" fill="#F1B57D" width="21.673" height="1.013"/>
		
			<rect x="10.64" y="29.342" transform="matrix(0.7071 -0.7071 0.7071 0.7071 -15.4458 22.4088)" fill="#F1B57D" width="17.371" height="1.013"/>
		
			<rect x="20.695" y="29.769" transform="matrix(0.7071 -0.7071 0.7071 0.7071 -13.7068 27.4606)" fill="#F1B57D" width="11.196" height="1.013"/>
		
			<rect x="28.251" y="31.231" transform="matrix(0.7071 -0.7071 0.7071 0.7071 -13.003 32.0813)" fill="#F1B57D" width="7.948" height="1.013"/>
		
			<rect x="35.037" y="33.012" transform="matrix(0.7071 -0.7071 0.7071 0.7071 -12.6183 36.572)" fill="#F1B57D" width="5.603" height="1.013"/>
		
			<rect x="41.375" y="34.611" transform="matrix(0.7071 -0.7071 0.7071 0.7071 -12.2254 40.72)" fill="#F1B57D" width="3.334" height="1.013"/>
		
			<rect x="46.378" y="36.648" transform="matrix(0.7071 -0.7071 0.7071 0.7071 -12.3484 44.4978)" fill="#F1B57D" width="2.319" height="1.013"/>
	</g>
	<g>
		
			<rect x="60.401" y="86.473" transform="matrix(0.7071 -0.7071 0.7071 0.7071 -40.6388 75.8509)" fill="#F1B57D" width="21.674" height="1.013"/>
		
			<rect x="61.463" y="80.167" transform="matrix(0.7071 -0.7071 0.7071 0.7071 -36.4988 73.2337)" fill="#F1B57D" width="17.37" height="1.013"/>
		
			<rect x="64.124" y="73.199" transform="matrix(0.7071 -0.7071 0.7071 0.7071 -31.6969 70.891)" fill="#F1B57D" width="11.196" height="1.013"/>
		
			<rect x="64.285" y="67.267" transform="matrix(0.7071 -0.7071 0.7071 0.7071 -27.9301 68.1193)" fill="#F1B57D" width="7.948" height="1.013"/>
		
			<rect x="63.677" y="61.653" transform="matrix(0.7071 -0.7071 0.7071 0.7071 -24.4823 65.2101)" fill="#F1B57D" width="5.602" height="1.013"/>
		
			<rect x="63.212" y="56.449" transform="matrix(0.7071 -0.7071 0.7071 0.7071 -21.271 62.5603)" fill="#F1B57D" width="3.334" height="1.013"/>
		
			<rect x="61.683" y="51.954" transform="matrix(0.7071 -0.7071 0.7071 0.7071 -18.6886 59.804)" fill="#F1B57D" width="2.319" height="1.013"/>
	</g>
	<g>
		<path fill="#FFFFFF" d="M85.885,11.48c-0.198-0.198-0.518-0.198-0.716,0l-1.254,1.254c-0.198,0.198-0.198,0.518,0,0.716
			c0.099,0.099,0.229,0.148,0.358,0.148s0.259-0.049,0.358-0.148l1.254-1.254C86.083,11.998,86.083,11.678,85.885,11.48z"/>
		<path fill="#FFFFFF" d="M54.825,41.825l-2.645,2.645c-0.198,0.198-0.198,0.518,0,0.716c0.099,0.099,0.228,0.148,0.358,0.148
			c0.13,0,0.259-0.049,0.358-0.148l2.645-2.645c0.198-0.198,0.198-0.518,0-0.716C55.343,41.627,55.023,41.627,54.825,41.825z"/>
		<path fill="#FFFFFF" d="M65.403,31.246l-2.645,2.645c-0.198,0.198-0.198,0.518,0,0.716c0.099,0.099,0.228,0.148,0.358,0.148
			s0.259-0.049,0.358-0.148l2.645-2.645c0.198-0.198,0.198-0.518,0-0.716C65.922,31.049,65.601,31.049,65.403,31.246z"/>
		<path fill="#FFFFFF" d="M70.693,25.957l-2.645,2.645c-0.198,0.198-0.198,0.518,0,0.716c0.099,0.099,0.229,0.148,0.358,0.148
			s0.259-0.049,0.358-0.148l2.645-2.645c0.198-0.198,0.198-0.518,0-0.716C71.211,25.759,70.891,25.759,70.693,25.957z"/>
		<path fill="#FFFFFF" d="M81.271,15.378l-2.645,2.645c-0.198,0.198-0.198,0.518,0,0.716c0.099,0.099,0.229,0.148,0.358,0.148
			s0.259-0.049,0.358-0.148l2.645-2.645c0.198-0.198,0.198-0.518,0-0.716C81.789,15.18,81.469,15.18,81.271,15.378z"/>
		<path fill="#FFFFFF" d="M75.982,20.667l-2.645,2.645c-0.198,0.198-0.198,0.518,0,0.716c0.099,0.099,0.229,0.148,0.358,0.148
			s0.259-0.049,0.358-0.148l2.645-2.645c0.198-0.198,0.198-0.518,0-0.716C76.5,20.47,76.18,20.47,75.982,20.667z"/>
		<path fill="#FFFFFF" d="M60.114,36.536l-2.645,2.645c-0.198,0.198-0.198,0.518,0,0.716c0.099,0.099,0.228,0.148,0.358,0.148
			c0.13,0,0.259-0.049,0.358-0.148l2.645-2.645c0.198-0.198,0.198-0.518,0-0.716C60.633,36.338,60.312,36.338,60.114,36.536z"/>
		<path fill="#FFFFFF" d="M49.536,47.115l-2.645,2.645c-0.198,0.198-0.198,0.518,0,0.716c0.099,0.099,0.228,0.149,0.358,0.149
			c0.13,0,0.259-0.05,0.358-0.149l2.645-2.645c0.198-0.198,0.198-0.518,0-0.716C50.054,46.917,49.734,46.917,49.536,47.115z"/>
		<path fill="#FFFFFF" d="M44.247,52.404l-1.253,1.253c-0.198,0.198-0.198,0.518,0,0.716c0.099,0.099,0.229,0.148,0.358,0.148
			c0.13,0,0.259-0.049,0.358-0.148l1.253-1.253c0.198-0.198,0.198-0.518,0-0.716S44.445,52.207,44.247,52.404z"/>
	</g>
	<path fill="#136296" d="M95,11.674c0-1.781-0.696-3.459-1.961-4.727c-2.604-2.6-6.841-2.596-9.446,0.009L67.792,22.759
		L28.763,12.64c-0.173-0.046-0.359,0.005-0.486,0.132l-5.813,5.826c-0.113,0.113-0.166,0.273-0.142,0.43
		c0.023,0.158,0.118,0.296,0.259,0.372l31.424,17.145L38.671,51.881L22.999,47.99c-0.173-0.042-0.355,0.008-0.481,0.134
		l-2.726,2.734c-0.108,0.108-0.161,0.26-0.145,0.412c0.016,0.152,0.1,0.289,0.229,0.371l22.706,14.656
		c0.199,0.129,0.463,0.102,0.633-0.067l20.236-20.242l17.142,31.428c0.077,0.14,0.214,0.236,0.372,0.259
		c0.024,0.003,0.048,0.005,0.072,0.005c0.133,0,0.262-0.052,0.358-0.148l5.821-5.817c0.127-0.127,0.177-0.312,0.132-0.485
		L77.237,32.205l15.797-15.807C94.302,15.133,95,13.456,95,11.674z M28.79,13.693l38.171,9.897L54.752,35.799L23.659,18.835
		L28.79,13.693z M76.92,31.089l-0.952-3.248l-0.972,0.285l1.192,4.069l0,0l10.108,39.009l-5.138,5.134L64.016,44.908
		c-0.077-0.14-0.215-0.236-0.372-0.259c-0.024-0.003-0.048-0.005-0.072-0.005c-0.134,0-0.263,0.053-0.358,0.148L42.788,65.224
		L20.952,51.129l2.081-2.087l15.672,3.891c0.173,0.043,0.355-0.008,0.48-0.134L55.2,36.783L68.303,23.68L84.31,7.672
		c2.21-2.21,5.805-2.213,8.013-0.009c1.074,1.076,1.665,2.5,1.665,4.011c0,1.511-0.593,2.934-1.668,4.007L76.92,31.089z"/>
</g>
</svg>