<?xml version="1.0" encoding="iso-8859-1"?>
<!-- Uploaded to: SVG Repo, www.svgrepo.com, Generator: SVG Repo Mixer Tools -->
<svg height="800px" width="800px" version="1.1" id="Layer_1" xmlns="http://www.w3.org/2000/svg" xmlns:xlink="http://www.w3.org/1999/xlink" 
	 viewBox="0 0 481.344 481.344" xml:space="preserve">
<path style="fill:#92C7D3;" d="M160.251,272.624V56c0-26.512-21.488-48-48-48l0,0c-26.512,0-48,21.488-48,48v218.96
	C28.187,294.6,4.835,334.648,9.731,379.592c5.272,48.432,44.488,87.72,92.912,93.064c63.696,7.04,117.608-42.648,117.608-104.92
	C220.251,325.784,195.707,289.648,160.251,272.624z"/>
<path style="fill:#4D4D4D;" d="M114.859,481.344c-4.336,0-8.704-0.24-13.096-0.728c-52.24-5.768-94.296-47.88-99.984-100.152
	c-4.864-44.616,16.424-87.312,54.472-110.144V56c0-30.872,25.12-56,56-56s56,25.128,56,56v211.72
	c36.616,19.664,60,58.384,60,100.032c0,32.256-13.792,63.104-37.832,84.632C169.307,471.288,142.867,481.344,114.859,481.344z
	 M112.251,16c-22.056,0-40,17.944-40,40v223.712l-4.176,2.272c-34.936,19.032-54.72,57.008-50.392,96.752
	c4.888,44.864,40.984,81.032,85.84,85.976c28.208,3.144,55.288-5.496,76.224-24.24c20.656-18.504,32.504-45.008,32.504-72.72
	c0-37.224-21.768-71.736-55.464-87.912l-4.536-2.184V56C152.251,33.944,134.307,16,112.251,16z"/>
<g>
	<path style="fill:#E4F1F4;" d="M136.251,302.744V216c0-13.256-10.744-24-24-24l0,0c-13.256,0-24,10.744-24,24v88.024
		c-25.24,9.976-43.336,34.112-44.376,62.64c-1.392,38.312,29.776,71.656,68.104,72.728c39.672,1.112,72.184-30.72,72.184-70.144
		C184.163,338.288,164.083,312.056,136.251,302.744z"/>
	<path style="fill:#E4F1F4;" d="M128.251,72h-32c-4.416,0-8-3.576-8-8s3.584-8,8-8h32c4.416,0,8,3.576,8,8S132.667,72,128.251,72z"
		/>
	<path style="fill:#E4F1F4;" d="M128.251,120h-32c-4.416,0-8-3.576-8-8s3.584-8,8-8h32c4.416,0,8,3.576,8,8
		C136.251,116.424,132.667,120,128.251,120z"/>
	<path style="fill:#E4F1F4;" d="M128.251,168h-32c-4.416,0-8-3.576-8-8s3.584-8,8-8h32c4.416,0,8,3.576,8,8S132.667,168,128.251,168
		z"/>
</g>
<path style="fill:#4D4D4D;" d="M368.251,104h-13.528l9.736-10.584c2.992-3.248,2.784-8.312-0.472-11.304
	c-3.248-2.992-8.32-2.784-11.304,0.48L332.987,104h-25.424l42.248-42.248c3.128-3.128,3.128-8.184,0-11.312s-8.184-3.128-11.312,0
	l-42.248,42.248V67.32l21.936-21.856c3.136-3.12,3.144-8.176,0.024-11.312s-8.184-3.152-11.312-0.016l-10.648,10.6V32
	c0-4.424-3.584-8-8-8s-8,3.576-8,8v12.712l-10.6-10.584c-3.136-3.12-8.2-3.136-11.32,0.016c-3.12,3.128-3.112,8.184,0.008,11.312
	l21.912,21.864v25.368L238.003,50.44c-3.128-3.128-8.184-3.128-11.312,0s-3.128,8.184,0,11.312L268.939,104h-26.08l-20.568-21.52
	c-3.056-3.2-8.12-3.312-11.312-0.256c-3.192,3.048-3.312,8.12-0.256,11.304L220.731,104h-12.48c-4.416,0-8,3.576-8,8
	c0,4.424,3.584,8,8,8h12.456l-11.032,10.992c-3.136,3.128-3.144,8.184-0.024,11.32c1.56,1.568,3.616,2.352,5.664,2.352
	c2.04,0,4.088-0.776,5.648-2.328L243.387,120h25.552l-42.248,42.248c-3.128,3.128-3.128,8.184,0,11.312
	c1.56,1.56,3.608,2.344,5.656,2.344s4.096-0.784,5.656-2.344l42.248-42.248v25.16l-21.904,21.856
	c-3.128,3.128-3.136,8.184-0.008,11.312c3.12,3.136,8.184,3.136,11.32,0.016l10.592-10.576V192c0,4.424,3.584,8,8,8s8-3.576,8-8
	v-12.944l10.648,10.608c1.56,1.56,3.6,2.336,5.648,2.336s4.104-0.784,5.664-2.352c3.12-3.136,3.112-8.192-0.024-11.312
	l-21.936-21.856v-25.168l42.248,42.248c1.56,1.56,3.608,2.344,5.656,2.344s4.096-0.784,5.656-2.344
	c3.128-3.128,3.128-8.184,0-11.312L307.563,120h25.488l20.88,22.152c1.576,1.672,3.696,2.512,5.824,2.512
	c1.968,0,3.944-0.72,5.488-2.176c3.216-3.032,3.36-8.096,0.336-11.304L355.035,120h13.216c4.416,0,8-3.576,8-8
	S372.667,104,368.251,104z"/>
<circle style="fill:#E4F1F4;" cx="288.651" cy="111.576" r="29.824"/>
<g>
	<path style="fill:#4D4D4D;" d="M288.675,149.408c-20.856,0-37.824-16.968-37.824-37.832s16.968-37.832,37.824-37.832
		c20.856,0,37.832,16.968,37.832,37.832S309.531,149.408,288.675,149.408z M288.675,89.752c-12.032,0-21.824,9.792-21.824,21.832
		s9.792,21.832,21.824,21.832s21.832-9.792,21.832-21.832S300.707,89.752,288.675,89.752z"/>
	<path style="fill:#4D4D4D;" d="M472.251,328h-13.528l9.736-10.584c2.992-3.248,2.784-8.312-0.472-11.304
		c-3.248-2.992-8.328-2.784-11.304,0.48L436.987,328h-25.424l42.248-42.248c3.128-3.128,3.128-8.184,0-11.312s-8.184-3.128-11.312,0
		l-42.248,42.248V291.32l21.936-21.856c3.136-3.12,3.144-8.176,0.024-11.312c-3.12-3.136-8.192-3.152-11.312-0.016l-10.648,10.6V256
		c0-4.424-3.584-8-8-8s-8,3.576-8,8v12.712l-10.6-10.584c-3.136-3.12-8.2-3.128-11.32,0.016c-3.12,3.128-3.112,8.184,0.008,11.312
		l21.912,21.864v25.368l-42.248-42.248c-3.128-3.128-8.184-3.128-11.312,0s-3.128,8.184,0,11.312L372.939,328h-26.08l-20.568-21.52
		c-3.056-3.208-8.12-3.312-11.312-0.256c-3.192,3.048-3.312,8.12-0.256,11.304L324.731,328h-12.48c-4.416,0-8,3.576-8,8s3.584,8,8,8
		h12.456l-11.032,10.992c-3.136,3.128-3.144,8.184-0.024,11.32c1.56,1.568,3.616,2.352,5.664,2.352c2.04,0,4.088-0.776,5.648-2.328
		L347.387,344h25.552l-42.248,42.248c-3.128,3.128-3.128,8.184,0,11.312c1.56,1.56,3.608,2.344,5.656,2.344s4.096-0.784,5.656-2.344
		l42.248-42.248v25.16l-21.904,21.856c-3.128,3.128-3.136,8.184-0.008,11.312c3.12,3.144,8.184,3.128,11.32,0.016l10.592-10.576V416
		c0,4.424,3.584,8,8,8s8-3.576,8-8v-12.944l10.648,10.608c1.56,1.56,3.6,2.336,5.648,2.336s4.104-0.784,5.664-2.352
		c3.12-3.136,3.112-8.192-0.024-11.312l-21.936-21.856v-25.168l42.248,42.248c1.56,1.56,3.608,2.344,5.656,2.344
		s4.096-0.784,5.656-2.344c3.128-3.128,3.128-8.184,0-11.312L411.563,344h25.488l20.88,22.152c1.576,1.672,3.696,2.512,5.824,2.512
		c1.968,0,3.944-0.72,5.488-2.176c3.216-3.032,3.36-8.096,0.336-11.304L459.035,344h13.216c4.416,0,8-3.576,8-8
		S476.667,328,472.251,328z"/>
</g>
<circle style="fill:#E4F1F4;" cx="392.651" cy="335.576" r="29.824"/>
<path style="fill:#4D4D4D;" d="M392.675,373.408c-20.856,0-37.824-16.968-37.824-37.832s16.968-37.832,37.824-37.832
	c20.856,0,37.832,16.968,37.832,37.832S413.531,373.408,392.675,373.408z M392.675,313.752c-12.032,0-21.824,9.792-21.824,21.832
	s9.792,21.832,21.824,21.832s21.832-9.792,21.832-21.832S404.707,313.752,392.675,313.752z"/>
</svg>